# xmcd
#
# Track frame offsets:
#	150
#	15271
#	29232
#	50956
#	65288
#	80941
#	105793
#	119338
#	132720
#	143594
#	157749
#	173366
#	192236
#
# Disc length: 2747 seconds
#
# Revision: 1
# Processed by: cddbd v1.5.1PL0 Copyright (c) Steve Scherf et al.
# Submitted via: EasyCDDAExtractor 8.2.3.1
#
DISCID=aa0ab90d
DTITLE=Bob Willoughby - blues,booze and oldtimey soul
DYEAR=1999
DGENRE=Blues
TTITLE0=Sugar Babe
TTITLE1=Goin' to Chicago
TTITLE2=Laughing on the outside
TTITLE3=The dark end of the street
TTITLE4=Sometimes I'm happy
TTITLE5=Cottage for sale
TTITLE6=If I could be with you
TTITLE7=Gee baby, ain't I good to you ?
TTITLE8=A hundred years from today
TTITLE9=Blue and sentimental
TTITLE10=Careless love
TTITLE11=Who will your next fool be ?
TTITLE12=I wanna go home
EXTD=
EXTT0=
EXTT1=
EXTT2=
EXTT3=
EXTT4=
EXTT5=
EXTT6=
EXTT7=
EXTT8=
EXTT9=
EXTT10=
EXTT11=
EXTT12=
PLAYORDER=
